<svg enable-background="new 0 0 500 500" viewBox="0 0 500 500" xmlns="http://www.w3.org/2000/svg"><path d="m455.6 500h-411.2c-24.5 0-44.4-19.9-44.4-44.4v-411.2c0-24.5 19.9-44.4 44.4-44.4h411.1c24.6 0 44.5 19.9 44.5 44.4v411.1c0 24.6-19.9 44.5-44.4 44.5z"/><g fill="#fff"><path d="m196.2 278.8c0 33.1-11.2 40.7-74.4 40.7h-6.3c-70.7 0-78.2-6-78.2-40.7v-4.2h29.4v3.2c0 17.3 6 19.3 46.7 19.3h5.3c43.1 0 48.3-3.2 48.3-17.6v-1.4c0-15.1-3.6-18.1-49.9-18.1-71 0-77.8-6.6-77.8-38.3v-1.6c0-32.3 11.3-39.6 69.9-39.6h6.8c67.9 0 76 8.2 76 39.9v3.6h-29.3v-2.2c0-16.1-5-19.3-42.3-19.3h-5.2c-41.9 0-46.7 2.6-46.7 17.6v1.4c0 13.2 2.6 16 51.7 16 67.2 0 76 6 76 39.7z"/><path d="m417.3 319.4h-37l-41-104.6h-.4l-41.2 104.6h-37.3l-50.7-138.9h32.4l39.2 111.7h.4l43.1-111.7h30.4l43.3 111.9h.4l38-111.9h31.2z"/></g></svg>